<svg width="1709" height="404" xmlns="http://www.w3.org/2000/svg" xmlns:svg="http://www.w3.org/2000/svg">
    <g class="layer">
        <title>Layer 1</title>
        <path d="m440.88,288.03l0,-12.09c-9.72,10.9 -20.62,14.94 -32.23,14.94c-27.74,0 -50.49,-20.86 -50.49,-60.21c0,-37.92 22.28,-60 50.49,-60c11.61,0 23.22,4 32.23,14.94l0,-55.68l42.66,0l0,158.1l-42.66,0zm0,-42.66l0,-29.39c-4,-5 -12.09,-7.59 -17.78,-7.59c-11.61,0 -21.33,8.06 -21.33,22.28c0,14.22 9.72,22.52 21.33,22.52c5.69,0 13.75,-2.85 17.78,-7.82z" fill="white" id="svg_1"/>
        <path d="m505.35,138.71c0,-11.62 10.19,-20.86 22.75,-20.86c12.56,0 22.52,9.24 22.52,20.86c0,11.62 -10,20.85 -22.52,20.85c-12.52,0 -22.75,-9.24 -22.75,-20.85zm1.89,149.32l0,-114.52l42.7,0l0,114.52l-42.7,0z" fill="white" id="svg_2"/>
        <path d="m648.5,288.03l0,-12.09c-9.71,10.9 -20.62,14.94 -32.23,14.94c-27.73,0 -50.49,-20.86 -50.49,-60.21c0,-37.92 22.28,-60 50.49,-60c11.61,0 23.23,4 32.23,14.94l0,-55.68l42.67,0l0,158.1l-42.67,0zm0,-42.66l0,-29.39c-4,-5 -12.08,-7.59 -17.77,-7.59c-11.62,0 -21.33,8.06 -21.33,22.28c0,14.22 9.71,22.52 21.33,22.52c5.69,0 13.74,-2.85 17.77,-7.82z" fill="white" id="svg_3"/>
        <path d="m707.04,230.67c0,-32 23.7,-60 64.24,-60c40.76,0 64.47,28 64.47,60c0,32 -23.71,60.21 -64.47,60.21c-40.54,0 -64.24,-28.21 -64.24,-60.21zm84.86,0c0,-12.56 -7.35,-22.28 -20.62,-22.28c-13,0 -20.39,9.72 -20.39,22.28c0,12.8 7.35,22.52 20.39,22.52c13.27,0 20.66,-9.68 20.66,-22.52l-0.04,0z" fill="white" id="svg_4"/>
        <path d="m929.13,288.03l0,-63.29c0,-11.85 -6.4,-16.35 -16.6,-16.35c-9.71,0 -14.69,5 -18.24,9l0,70.63l-42.67,0l0,-114.51l42.67,0l0,13c6.63,-7.59 19.19,-15.89 39.34,-15.89c26.55,0 38.16,16.12 38.16,36l0,81.3l-42.66,0.11z" fill="white" id="svg_5"/>
        <path d="m991.46,317.42l18,-30.34c8.77,8.77 21.81,12.56 34.13,12.56c10,0 26.55,-3.79 26.55,-23.93l0,-6.2c-9.72,11.14 -20.38,15.41 -32.24,15.41c-27.49,0 -50.25,-18 -50.25,-57.12c0,-38.17 22,-57.13 50.25,-57.13c11.86,0 23,4 32.24,14.94l0,-12.1l42.66,0l0,102.2c0,49.53 -40.76,58.78 -69.21,58.78c-19.65,0.02 -37.2,-5.22 -52.13,-17.07zm78.69,-77.51l0,-24.17c-4,-4.74 -12.09,-7.35 -17.54,-7.35c-11.62,0 -21.33,5.45 -21.33,19.44c0,13.99 9.71,19.43 21.33,19.43c5.45,0 13.51,-2.6 17.54,-7.35z" fill="white" id="svg_6"/>
        <path d="m1133.16,275.7c0,-1.29 0.38,-2.55 1.1,-3.62c0.72,-1.07 1.73,-1.91 2.93,-2.4c1.19,-0.5 2.5,-0.63 3.76,-0.37c1.27,0.25 2.43,0.87 3.34,1.78c0.91,0.91 1.53,2.07 1.78,3.34c0.26,1.26 0.13,2.57 -0.37,3.76c-0.49,1.2 -1.33,2.22 -2.4,2.93c-1.07,0.72 -2.33,1.1 -3.62,1.1c-1.72,-0.02 -3.37,-0.71 -4.59,-1.93c-1.22,-1.22 -1.91,-2.87 -1.93,-4.59z" fill="white" id="svg_11" opacity="0.8"/>
        <path d="m1169.54,281.03l-23.81,-57.23l9.6,0l19.07,46.92l19,-46.92l9.71,0l-23.81,57.23l-9.76,0z" fill="white" id="svg_12" opacity="0.8"/>
        <path d="m1250.94,281.03l0,-37.44c0,-10.07 -5.09,-13.27 -12.79,-13.27c-7,0 -13.63,4.26 -17,8.89l0,41.82l-8.88,0l0,-57.23l8.88,0l0,8.3c4,-4.74 11.85,-9.72 20.38,-9.72c12,0 18.25,6 18.25,18.49l0,40.16l-8.84,0z" fill="white" id="svg_13" opacity="0.8"/>
        <path d="m156.42,3c83.43,0 154.51,67.65 154.51,151.08c0,83.43 -71.08,151.08 -154.51,151.08l0,-49c12,0.18 23.91,-2.03 35.05,-6.5c11.13,-4.47 21.27,-11.1 29.82,-19.53c8.55,-8.42 15.33,-18.45 19.97,-29.52c4.63,-11.07 7.01,-22.95 7.01,-34.95c0,-12 -2.38,-23.88 -7.01,-34.95c-4.64,-11.07 -11.42,-21.1 -19.97,-29.52c-8.55,-8.43 -18.69,-15.06 -29.82,-19.53c-11.14,-4.47 -23.05,-6.68 -35.05,-6.5l0,-72.16z" fill="white" id="svg_14" opacity="0.8"/>
        <path d="m156.51,3l-118.45,0c-4.74,0 -9.43,0.93 -13.8,2.74c-4.38,1.81 -8.35,4.47 -11.7,7.82c-3.35,3.35 -6.01,7.32 -7.82,11.7c-1.81,4.37 -2.74,9.06 -2.74,13.8l0,241.45c0,6.53 2.59,12.79 7.21,17.4c4.61,4.62 10.87,7.21 17.4,7.21l129.9,0l0,-49l-67.57,0c-1.94,0 -3.85,-0.38 -5.64,-1.12c-1.79,-0.74 -3.42,-1.82 -4.79,-3.19c-1.36,-1.37 -2.45,-3 -3.19,-4.79c-0.74,-1.79 -1.12,-3.7 -1.12,-5.64l0,0.25l0,-145.12l0,0.3c0,-5.73 2.28,-11.22 6.33,-15.27c4.05,-4.05 9.54,-6.32 15.27,-6.32l-0.18,0l60.93,0l-0.04,-72.22z" fill="white" id="svg_15"/>
    </g>
</svg>